<?xml version="1.0" encoding="UTF-8"?><svg id="app_background" xmlns="http://www.w3.org/2000/svg" viewBox="0 0 1125 2436"><defs><style>.cls-1,.cls-2{stroke-width:5px;}.cls-1,.cls-2,.cls-3,.cls-4,.cls-5,.cls-6,.cls-7,.cls-8,.cls-9,.cls-10,.cls-11,.cls-12,.cls-13,.cls-14{stroke:#4d4d4d;}.cls-1,.cls-2,.cls-4,.cls-12,.cls-15{stroke-miterlimit:10;}.cls-1,.cls-16{fill:#fff;}.cls-2{fill:#e6faff;}.cls-17{stroke:#fff;stroke-width:123.55px;}.cls-17,.cls-3,.cls-4,.cls-5,.cls-9,.cls-10,.cls-18,.cls-15,.cls-14{stroke-linecap:round;}.cls-17,.cls-3,.cls-5,.cls-10,.cls-18,.cls-14{stroke-linejoin:round;}.cls-17,.cls-4,.cls-5,.cls-9,.cls-10,.cls-18,.cls-13,.cls-15,.cls-14{fill:none;}.cls-3,.cls-19,.cls-7,.cls-11{fill:#c2f1ff;}.cls-3,.cls-9,.cls-10,.cls-11,.cls-13{stroke-width:13.01px;}.cls-4{stroke-width:120.3px;}.cls-20{fill:#b28264;}.cls-21{fill:#ccb8b0;}.cls-22,.cls-12{fill:#c5ffc5;}.cls-23{fill:#39b44a;}.cls-24{fill:#4d4d4d;}.cls-5{stroke-width:55.27px;}.cls-6{fill:#ffd9c2;}.cls-6,.cls-7,.cls-8{stroke-width:15.39px;}.cls-8{fill:#c3f1ff;}.cls-18{stroke:#ffd9c2;stroke-width:32.51px;}.cls-12{stroke-width:7px;}.cls-15{stroke:#c2f1ff;stroke-width:94.29px;}.cls-14{stroke-width:149.57px;}</style></defs><g><path class="cls-2" d="M-24.82-118.93c-11.63,15.81-47.77,2737.42-47.77,2737.42l1291.58-53.65-37.93-2722.18L-24.82-118.93Z"/><path class="cls-1" d="M-84.06,811.42s1269.46-31.62,1269.46,0-58.26,2525.6-58.26,2525.6c0,0-1235.81-10.15-1233.31-20.12S-84.06,811.42-84.06,811.42Z"/><g><path class="cls-12" d="M-14.95,1451.78v-498.57c19.53,1.59,38.64,13.43,44.63,32.33,19.63,1.93,32.63-28,51.92-23.88,5.77,1.23,10.39,5.43,15.75,7.89,10.9,5.01,23.73,2.5,35.43,5.12s23.1,15.95,16.13,25.71c6.01-23.99,38.17-36.88,59.09-23.69,11.1,7,17.94,18.97,27.32,28.15,9.37,9.19,24.47,15.53,35.38,8.23,6.04-4.04,9.07-11.16,13.06-17.23,11.61-17.65,33.97-27.54,54.84-24.26,18.16,2.86,35.29,14.71,53.4,11.54,15.03-2.63,27.02-15.25,42.16-17.13,8.82-1.09,17.61,1.61,26.08,4.28,21.1,6.65,42.2,13.31,63.3,19.96,19.95-3.08,33.95-20.46,49.58-33.24s40.85-20.67,54.5-5.79c9.68,10.55,11.43,30.49,25.6,32.56,5.62,.82,11.09-1.9,16.71-2.69,29.6-4.19,46.38,42.34,76.25,41.13,25.35-1.03,38.26-35.78,63.43-38.97,30.43-3.86,52.95,40.73,82.65,33.08,9.38-2.42,16.57-9.74,24.94-14.62,22.25-12.97,53.99-5.78,68.48,15.52,15.64-8.22,30.9,11.3,47.36,17.71,25.71,10,91.95-12.77,118.09-23.05l31.03,2316.56H-27.73S-14.95,1533.01-14.95,1451.78Z"/><path class="cls-24" d="M787.38,1133.04c-9.12-8.48-18.5-17.39-24.08-28.71-2.61-5.3-4.23-11.23-4.07-17.17,.14-5.34,1.78-10.56,4.42-15.18,5.42-9.47,15.08-16.68,25.97-18.31s20.74,3.09,27.8,10.72c7.84,8.48,11.91,20.73,8.9,32.08l4.82,1.33c4.38-17.34,18.7-29.41,33.98-37.37,4.02-2.1,8.17-3.95,12.4-5.58,4.81-1.85,9.76-3.68,14.86-4.56,9.65-1.67,18.33,3.11,24.22,10.55,7.45,9.42,9.48,21.94,11.49,33.44,.33,1.87,2.97,2.39,4.18,1.1,7.26-7.71,16.1-17.49,27.47-18.11,4.44-.24,8.96,.79,12.65,3.34,4.27,2.95,5.58,7.5,5.39,12.5-.24,6-1.35,11.82,1.53,17.4,2.55,4.92,7.94,7.49,13.24,5.35,2.68-1.08,4.89-2.95,7.08-4.78,1.68-1.41,3.26-2.7,5.42-3.27,1.65-.43,3.58-.55,4.74,.4-.01,0,.28,.38,.34,.5,0,.02,.19,.69,.2,1,.08,1.68-.61,3.33-.57,5.03,.12,5,4.05,8.11,8.72,8.84,5.13,.8,10.43-.26,15.16-2.3,1.24-.54,1.52-2.36,.9-3.42-.75-1.28-2.18-1.44-3.42-.9-3.38,1.46-8.03,2.33-11.6,1.75-1.8-.29-3.08-.73-4.07-1.87,.24,.28-.02-.02-.06-.08-.14-.2-.27-.42-.37-.65,.13,.29-.17-.6-.21-.76-.18-.87,.17-2.58,.34-3.79,.41-2.88-.19-5.72-2.64-7.51-1.73-1.26-3.97-1.67-6.07-1.51-2.37,.17-4.75,.89-6.76,2.18-2.24,1.44-4.1,3.41-6.27,4.95-1.85,1.31-4.13,2.59-6.45,1.73-1.79-.67-2.99-2.42-3.7-4.13-2.38-5.72,.03-12.08-.6-18.02-.58-5.4-3.3-9.88-7.77-12.96-3.97-2.74-8.96-4.03-13.74-4.06-13.5-.07-23.85,10.48-32.43,19.61l4.18,1.1c-1.96-11.2-4.05-23-10.53-32.61-5.62-8.33-14.46-15.02-24.81-15.4-5.98-.22-11.84,1.67-17.42,3.63-4.6,1.62-9.13,3.46-13.53,5.55-8.67,4.11-16.96,9.26-24,15.82-7.72,7.2-13.7,16.23-16.3,26.53-.79,3.12,3.99,4.44,4.82,1.33,6.14-23.12-12.99-49.35-37.21-49.42-12.48-.04-24.14,6.81-31.6,16.57-3.7,4.84-6.41,10.57-7.51,16.58-1.15,6.33-.54,12.8,1.49,18.89,4.88,14.66,16.48,25.88,27.52,36.15,2.35,2.19,5.9-1.34,3.54-3.54h0Z"/><path class="cls-24" d="M389.9,1141.39c-.91-20.92-7.84-41.76-20.18-58.73-2.94-4.05-6.23-7.81-10.3-10.76s-8.85-4.62-13.84-5.02c-10.15-.81-20.13,3.88-28.42,9.29-8.74,5.7-16.82,12.65-24.42,19.79s-14.81,14.95-21.38,23.16c-3.28,4.1-6.36,8.32-9.41,12.59-2.31,3.24-5.47,7.02-9.93,6.09s-7.61-4.86-9.64-8.54c-2.17-3.93-3.42-8.32-5.4-12.34s-4.8-7.81-8.81-10.03-8.95-2.73-13.6-2.11c-4.96,.66-9.66,2.36-14.24,4.3-5.34,2.27-10.6,4.72-15.89,7.09-2.75,1.23-5.49,2.46-8.24,3.69h2.52c-13.11-7.5-28.81-4.12-42.55-.43-11.41,3.07-23.26,6.82-32.52,14.44-5,4.12-8.8,9.54-10.51,15.82-.84,3.11,3.98,4.44,4.82,1.33,2.8-10.31,11.91-16.54,21.2-20.65,5-2.21,10.24-3.86,15.5-5.34,6.2-1.74,12.5-3.43,18.9-4.23s12.87-.7,18.92,1.57c1.46,.55,2.83,1.64,4.31,2.05,1.09,.3,2.04-.3,2.99-.73,1.06-.48,2.13-.95,3.19-1.43,3.54-1.59,7.09-3.17,10.63-4.76,6.25-2.8,12.49-5.94,19.23-7.39,5.59-1.2,11.67-.86,15.9,3.43,4,4.05,5.62,9.96,7.82,15.06,2.46,5.72,6.54,11.24,12.56,13.53,2.92,1.11,6.14,1.02,9-.22s5.17-3.69,7.1-6.23c4.1-5.41,7.93-10.96,12.27-16.19,8.78-10.57,18.53-20.33,29.1-29.1,5.24-4.35,10.64-8.58,16.52-12.02,5.57-3.25,11.81-6.04,18.32-6.5s12.21,1.44,16.99,5.55,8.63,9.74,11.93,15.27c7.07,11.86,11.72,25.11,13.68,38.78,.47,3.29,.75,6.6,.89,9.92s5.14,3.22,5,0h0Z"/></g><g><g><g><path class="cls-21" d="M1154.01,1544.63c-14.76,0-58.27,4.02-71.99-1.26-16.47-6.34-31.3-17.86-48.85-19.7-12.25-1.29-24.47,2.34-36.78,2.59-12.31,.26-26.36-4.36-30.81-15.84-1.18-3.05-1.75-6.63-4.34-8.63-3.17-2.46-7.73-1.31-11.52,0-21.67,7.53-42.56,17.26-62.27,29.01-12.68,7.56-25.45,16.16-40.11,17.9-31.51,3.74-59.22-25.05-90.94-24.27-8.41,.21-16.83,2.52-25.14,1.22-8.14-1.28-15.32-5.89-23.08-8.62-22.37-7.88-46.74,.32-70.29,3.13-23.55,2.81-52.8-3.84-59.8-26.5-8.27,12.41-16.54,24.82-24.81,37.22-2.24,3.36-4.57,6.81-7.91,9.08-5.42,3.67-12.46,3.59-19.01,3.38-24.34-.8-49.39-1.75-71.65-11.63-22.26-9.87-41.36-30.95-41.35-55.31-24.71,17.72-42.02,45.27-69.15,58.99-29.3,14.82-64.18,10.74-96.72,6.29-11.57-1.58-23.15-3.17-34.72-4.75-35.86-4.9-77.01-13.32-93.97-45.29-34.58,29.46-99.83,68.58-143.66,73.5v1688.19l1165.23-12.32s13.68-1685.76,13.64-1696.39Z"/><path class="cls-24" d="M1154.01,1542.13c-15.15,.1-30.26,1.48-45.42,1.46-7.07,0-14.45,.06-21.39-1.4-9.93-2.09-18.89-8.11-27.94-12.51-8.28-4.02-16.85-7.57-26.09-8.51-12.77-1.29-25.22,2.73-37.94,2.59-9.88-.11-21.48-3.19-26.54-12.53-3.86-7.12-4.16-14.15-14.18-13.22-9.17,.85-19.11,6.33-27.44,9.88-11.05,4.71-21.86,10-32.36,15.84-21.34,11.88-40.83,27.34-66.68,21.05-18.6-4.52-34.85-15.53-53.33-20.45-9.35-2.49-18.15-2.59-27.75-1.58-6.07,.64-11.97,1.32-18.02-.14s-11.46-4.62-17.19-6.9c-25.06-9.96-50.63-.1-76.07,2.17-20.44,1.82-47.52-2.86-55.17-24.9-.72-2.07-3.35-2.43-4.57-.6-5.09,7.64-10.18,15.27-15.27,22.91-4.97,7.46-9.93,18.61-18.06,22.98s-18.57,2.53-27.39,2.15c-9.86-.43-19.75-1.05-29.51-2.59-32.21-5.1-68.83-24.49-69.84-61.44-.05-1.72-2.15-3.34-3.76-2.16-20.88,15.36-36.27,36.93-57.43,51.88-25.7,18.16-56.95,18.77-87.12,15.56-28.32-3.01-57.5-6.17-85.28-12.66-24.28-5.68-48.63-15.88-61.31-38.65-.84-1.5-2.74-1.51-3.93-.51-20.46,17.28-43.13,32.13-66.65,44.91s-48.69,24.59-75.24,27.86c-1.34,.17-2.5,1.01-2.5,2.5v1619.68c0,21.86-.6,43.82,0,65.68,.03,.94,0,1.89,0,2.83,0,1.34,1.15,2.51,2.5,2.5,38.59-.41,77.18-.82,115.78-1.22,92.69-.98,185.39-1.96,278.08-2.94,112.17-1.19,224.34-2.37,336.51-3.56,97.02-1.03,194.04-2.05,291.07-3.08,32.01-.34,64.02-.68,96.03-1.02,15.05-.16,30.71,.91,45.72-.48,.67-.06,1.37-.01,2.05-.02,1.36-.01,2.49-1.13,2.5-2.5,.12-15.02,.24-30.04,.37-45.06,.33-40.89,.66-81.79,.99-122.68,.49-60.51,.98-121.03,1.47-181.54,.6-73.88,1.2-147.77,1.79-221.65,.66-81,1.31-162,1.96-243,.66-81.87,1.32-163.73,1.98-245.6,.62-76.48,1.23-152.96,1.85-229.44,.52-64.84,1.04-129.69,1.56-194.53,.37-46.95,.75-93.91,1.12-140.86,.18-22.81,.38-45.63,.52-68.44,0-1.19,.02-2.39,.02-3.58,0-3.22-5.01-3.22-5,0,.04,15.95-.23,31.92-.35,47.87-.32,41.63-.65,83.25-.99,124.88-.49,61.05-.97,122.09-1.46,183.14-.6,74.21-1.19,148.42-1.79,222.64-.65,81.13-1.31,162.25-1.96,243.38-.66,81.79-1.32,163.58-1.98,245.37-.62,76.2-1.23,152.4-1.85,228.61-.52,64.36-1.04,128.72-1.56,193.09-.37,46.27-.75,92.54-1.13,138.81-.12,14.4-.23,28.79-.35,43.19-.06,7.24-1.2,15.41-.18,22.59,.13,.9-.02,1.92-.02,2.84l2.5-2.5c-38.59,.41-77.18,.82-115.78,1.22-92.69,.98-185.39,1.96-278.08,2.94-112.17,1.19-224.34,2.37-336.51,3.56-97.02,1.03-194.04,2.05-291.07,3.08-32.01,.34-64.02,.68-96.03,1.02-9.99,.11-19.97,.21-29.96,.32-4.73,.05-11.14-1.01-15.76,.17-.6,.15-1.41,.01-2.05,.02l2.5,2.5v-571.49c0-80.81,0-161.61,0-242.42s0-163.14,0-244.72v-604.17c0-7.22,1.08-15.4,0-22.56-.14-.9,0-1.92,0-2.83l-2.5,2.5c26.6-3.28,51.93-14.72,75.36-27.25,24.79-13.25,48.59-28.84,70.07-46.99l-3.93-.51c11.75,21.09,33.12,32.35,55.67,38.73,28.73,8.13,59.48,10.8,89.03,14.34,29.45,3.54,61.1,4.75,87.77-10.39,25.48-14.46,42.14-39.84,65.52-57.03l-3.76-2.16c1.07,39.17,38.92,60.78,73.51,66.26,10.2,1.61,20.52,2.32,30.84,2.77,9.04,.39,19.85,2.12,28.41-1.7,7.38-3.3,11.35-10.88,15.64-17.31,7-10.5,13.99-21,20.99-31.5l-4.57-.6c13.25,38.21,62.07,28.05,92,23.57,13.24-1.98,26.98-2.92,39.84,1.55,12.15,4.23,21.34,9.93,34.71,8.81,11.76-.98,22.09-1.82,33.61,1.6,10.68,3.18,20.66,8.25,30.87,12.63,16.93,7.27,34.6,12.26,52.66,5.92,9.56-3.35,18.17-8.74,26.81-13.92,11.63-6.98,23.56-13.37,35.91-18.97,6.27-2.85,12.62-5.5,19.06-7.94,8.68-3.3,15.82-7.28,22.02,3.52,3.69,6.43,7.12,10.9,14.2,14.07,21.28,9.53,44.56-3.62,66.47,3.43,12.21,3.93,22.97,11.23,34.78,16.1,6.84,2.82,14.03,3.47,21.38,3.76,18.03,.72,35.99-1.2,54.01-1.31,3.22-.02,3.22-5.02,0-5Z"/></g><path class="cls-24" d="M1005.04,1784.76c7.38-20.72,17.89-40.44,31.14-58.01,5.85-7.75,12.72-15.18,21.53-19.55,3.97-1.97,9.4-3.91,13.6-1.52,1.98,1.13,3.36,3.01,4.55,4.89,1.45,2.28,2.77,4.65,4.05,7.03,5.91,11,10.27,22.77,13.06,34.94,.43,1.86,2.89,2.38,4.18,1.1,3.64-3.61,5.45-8.39,8.15-12.64,2.08-3.26,6.14-7.27,10.39-5.63,2.35,.91,4.29,2.93,6.28,4.42s4.14,2.9,6.33,4.15c4.57,2.59,9.5,4.63,14.56,6.03,5.75,1.58,11.76,2.34,17.72,2.25,3.21-.05,3.22-5.05,0-5-10.61,.16-21.14-2.57-30.31-7.91-2.24-1.3-4.41-2.74-6.45-4.34-2.25-1.76-4.41-3.7-7.2-4.54-5.18-1.55-10.4,1.46-13.66,5.35-3.69,4.4-5.26,10.27-9.36,14.34l4.18,1.1c-2.63-11.48-6.68-22.63-12-33.14-1.36-2.68-2.8-5.32-4.32-7.9-1.32-2.24-2.71-4.51-4.54-6.38-4.17-4.26-10.06-4.89-15.6-3.35-10.27,2.85-18.76,10.66-25.42,18.66-7.28,8.75-13.59,18.41-19.21,28.29-6.54,11.5-12.04,23.58-16.48,36.04-.45,1.27,.51,2.74,1.75,3.08,1.38,.38,2.62-.47,3.08-1.75h0Z"/><path class="cls-24" d="M51.38,2294.51c9.36-21.53,24.94-40.26,44.49-53.28,4.94-3.29,10.15-6.41,15.61-8.76s11.93-4.04,17.36-1.17c8.57,4.54,9,16.47,8.17,25.1-1.18,12.29-4.84,26.63,4.5,36.9,1.14,1.25,3.08,.77,3.93-.51,5.23-7.95,11.17-16.94,21.09-19.13,4.22-.93,8.66-.27,12.07,2.5s6.35,6.69,10.83,8.3c5.4,1.95,10.83-.58,16.26-.87s10.41,1.37,15.32,3.18,9.9,3.83,15.1,5.01c5.06,1.14,10.27,1.71,15.46,1.69,11.66-.05,23.26-3.06,33.43-8.76,2.81-1.57,.29-5.89-2.52-4.32-8.92,5-19.01,7.75-29.22,8.05-5.1,.15-10.2-.27-15.19-1.35s-10.11-3.06-15.09-4.91-10.45-3.61-15.97-3.62c-2.86,0-5.64,.58-8.44,1.11-2.45,.47-5.03,.87-7.46,.08-1.98-.64-3.6-2.11-5.08-3.52-1.66-1.58-3.26-3.2-5.1-4.57-4.09-3.05-9.21-3.86-14.18-3.12-12.05,1.79-19.41,12.27-25.62,21.71l3.93-.51c-3.75-4.12-4.78-9.69-4.81-15.1-.03-5.93,1.08-11.74,1.71-17.61,1.06-9.92,.16-22.24-8.48-28.74-11.17-8.4-26.09-.12-36.18,6.06s-19.82,14.21-27.96,23.21c-9.2,10.18-16.79,21.79-22.26,34.38-.54,1.24-.36,2.68,.9,3.42,1.06,.62,2.88,.35,3.42-.9h0Z"/></g><g><path class="cls-22" d="M42.28,1610.72c9.89-36.55,2.27-75.27-5.38-112.35,10.24,3.95,18.7,12.3,22.78,22.49,2.17-19.22,4.34-38.44,6.51-57.66,1.69-14.95,3.66-30.65,12.52-42.81,15.39,49.19,19.33,101.92,11.41,152.85,12.89-11.82,26.48-22.87,40.68-33.08,1.95-1.4,4.4-2.86,6.62-1.91,3.2,1.37,2.7,5.98,1.81,9.33-5.61,21.07-5.11,43.72,1.4,64.53"/><path class="cls-24" d="M44.69,1611.39c7.82-29.14,4.78-59.62-.5-88.91-1.49-8.28-3.17-16.52-4.87-24.76l-3.08,3.08c9.38,3.67,17.24,11.41,21.04,20.75,1.08,2.65,4.59,2.21,4.91-.66,1.62-14.37,3.25-28.75,4.87-43.12,1.43-12.7,2.23-25.75,5.59-38.13,1.74-6.42,4.32-12.54,8.23-17.96l-4.57-.6c5.94,19.01,10.22,38.56,12.69,58.33s3.2,39.89,2.15,59.86c-.58,11.16-1.72,22.29-3.43,33.34-.37,2.4,2.22,4.23,4.18,2.43,6.74-6.17,13.66-12.14,20.77-17.89,3.51-2.84,7.06-5.62,10.66-8.35,1.82-1.38,3.65-2.74,5.5-4.09,1.73-1.27,3.44-2.7,5.34-3.69,.53-.28,1.23-.62,1.85-.56,.58,.06,.86,.4,1.01,.64,.1,.16,.33,.97,.35,1.25,.08,.79,.04,1.63-.08,2.41-.24,1.67-.81,3.41-1.21,5.09-.52,2.17-.97,4.35-1.36,6.54-1.55,8.76-2.16,17.69-1.74,26.58,.48,10.11,2.23,20.17,5.23,29.84,.95,3.06,5.78,1.76,4.82-1.33-5.52-17.76-6.7-36.83-3.24-55.12,.44-2.34,.96-4.66,1.55-6.97,.46-1.8,.9-3.58,1.02-5.44,.24-3.7-1.34-7.72-5.41-8.37-2.36-.38-4.64,.59-6.58,1.87s-3.76,2.69-5.62,4.06c-3.91,2.89-7.77,5.84-11.58,8.86-8.53,6.74-16.81,13.79-24.83,21.13l4.18,2.43c3.11-20.06,4.47-40.37,3.97-60.66-.49-20.28-2.8-40.53-6.85-60.41-2.28-11.17-5.13-22.22-8.53-33.11-.68-2.18-3.33-2.32-4.57-.6-7.31,10.12-10.07,22.56-11.72,34.71-1.92,14.08-3.28,28.26-4.87,42.38-.93,8.21-1.86,16.43-2.78,24.64l4.91-.66c-4.52-11.12-13.35-19.86-24.53-24.24-1.92-.75-3.42,1.4-3.08,3.08,5.9,28.61,11.84,57.83,9.47,87.19-.65,8.05-1.99,16.02-4.09,23.82-.84,3.11,3.99,4.44,4.82,1.33h0Z"/></g><g><g><path class="cls-20" d="M982.99,1458.1c8.58,9.94,12.33,23.07,15.37,35.84,9.06,38.1,13.88,77.2,14.34,116.36,.03,2.7,.12,5.64,1.85,7.72,1.95,2.36,5.33,2.83,8.38,3.12,45.78,4.4,91.78,6.52,137.76,6.34l-11.23-164.99c-42.16-.75-84.31-1.51-126.47-2.26-21.58-.39-44.21-1.05-62.91-11.83-2.05-1.18-4.21-2.72-4.67-5.04-1.06-5.31,6.61-7.43,12.02-7.11,62.23,3.65,124.95,12.26,186.58,2.94l-4.55,23.3"/><path class="cls-24" d="M981.22,1459.87c5.76,6.73,9.22,15.04,11.75,23.44,2.85,9.45,4.88,19.17,6.84,28.84,4.13,20.4,7.04,41.04,8.71,61.79,.85,10.48,1.38,20.99,1.6,31.51,.09,4.46-.62,9.98,2.23,13.78s7.72,4.14,12.06,4.55c21.33,2.03,42.7,3.56,64.1,4.59s42.82,1.57,64.24,1.61c2.65,0,5.29,0,7.94,0,1.28,0,2.59-1.14,2.5-2.5-.37-5.48-.75-10.95-1.12-16.43-.9-13.15-1.79-26.3-2.69-39.45-1.08-15.9-2.17-31.81-3.25-47.71-.93-13.71-1.87-27.41-2.8-41.12-.45-6.66-.81-13.34-1.36-19.99,0-.09-.01-.19-.02-.28-.09-1.37-1.07-2.47-2.5-2.5-27.66-.49-55.32-.99-82.98-1.48-13.83-.25-27.66-.49-41.49-.74-12.01-.21-24.11-.35-35.99-2.29-5.8-.95-11.55-2.32-17.08-4.32-2.72-.99-5.38-2.14-7.95-3.47-1.89-.98-4.79-2.13-5.85-4.13-.37-.7-.39-1.25-.23-1.69s-.25,.52,.06-.17c.06-.14,.16-.28,.25-.41-.24,.34,.74-.7,.51-.52,1.42-1.11,3.4-1.62,5.1-1.87,2.64-.39,5.38-.03,8.03,.14,3.35,.21,6.7,.43,10.05,.66,27.17,1.87,54.3,4.33,81.5,5.52,27.05,1.18,54.24,1.08,81.14-2.21,3.39-.41,6.76-.88,10.14-1.38l-3.08-3.08c-1.33,6.8-2.66,13.6-3.99,20.41-.19,.96-.38,1.93-.57,2.89-.26,1.32,.37,2.7,1.75,3.08,1.23,.34,2.82-.41,3.08-1.75,1.33-6.8,2.66-13.6,3.99-20.41,.19-.96,.38-1.93,.57-2.89,.39-2.01-1.14-3.37-3.08-3.08-27.55,4.14-55.53,4.66-83.33,3.68s-55.66-3.48-83.47-5.45c-3.43-.24-6.87-.48-10.3-.7s-6.67-.59-9.99-.58c-4.28,.02-9.6,1.12-12.24,4.84-1.4,1.98-1.54,4.56-.58,6.76,1.15,2.66,3.68,4.3,6.12,5.67,5.25,2.93,10.89,5.17,16.67,6.8,11.88,3.37,24.33,4.3,36.63,4.71,13.7,.45,27.42,.55,41.12,.79,28.33,.51,56.65,1.01,84.98,1.52,3.5,.06,7,.13,10.5,.19l-2.5-2.5c.37,5.48,.75,10.95,1.12,16.43,.9,13.15,1.79,26.3,2.69,39.45,1.08,15.9,2.17,31.81,3.25,47.71,.93,13.71,1.87,27.41,2.8,41.12,.31,4.51,.61,9.02,.92,13.53,.15,2.13,.14,4.35,.44,6.47,.01,.09,.01,.19,.02,.28l2.5-2.5c-21.26,.08-42.52-.32-63.76-1.22s-42.46-2.28-63.63-4.16c-2.64-.23-5.27-.47-7.91-.72-2.08-.2-4.21-.29-6.23-.88-1.6-.47-2.89-1.34-3.45-2.97-.66-1.96-.51-4.15-.54-6.18-.15-10.36-.6-20.71-1.36-31.03-1.53-20.88-4.29-41.67-8.25-62.23-1.88-9.78-3.95-19.55-6.52-29.17-2.3-8.57-5.26-17.18-10.18-24.63-1.25-1.9-2.63-3.71-4.11-5.44-.88-1.03-2.63-.9-3.54,0-1.02,1.02-.88,2.51,0,3.54h0Z"/></g><g><path class="cls-23" d="M1018.49,1439.88c-21.85-45.95-31.41-101.39-29.68-152.24,28.91,46.24,57.93,96.33,56.13,150.98-6.15-90.63-8.22-199.47,34.89-279.24,20.49,63.95,41.23,130.97,29.87,197.16-4.86,28.28-15.44,55.21-26.14,81.83,17.09-18.23,18.59-43.62,31.18-63.45,13.74-21.65,33.36-39.88,56.51-50.9-5.08,10.02-6.19,21.5-8.56,32.49-7.03,32.63-29.72,66.28-56.4,86.33"/><path class="cls-24" d="M1020.65,1438.62c-8.61-18.15-15.07-37.28-19.79-56.79-4.79-19.81-7.79-40.04-9.05-60.37-.7-11.26-.87-22.55-.49-33.82l-4.66,1.26c11.3,18.08,22.39,36.35,31.83,55.48,9.31,18.85,17,38.64,21.05,59.32,2.25,11.5,3.27,23.2,2.9,34.91h5c-1.23-18.17-2.25-36.36-2.82-54.56s-.71-37.74-.09-56.6c.63-18.99,2.01-37.96,4.49-56.8,2.41-18.28,5.92-36.44,10.88-54.2s10.99-34.02,19.04-49.97c.99-1.96,2.01-3.91,3.05-5.84l-4.57-.6c5.74,17.92,11.43,35.87,16.47,54.01s9.39,36.39,12.4,54.93,4.56,36.91,4.04,55.48-3.35,36.73-8.26,54.57c-4.9,17.8-11.5,35.08-18.34,52.21-.86,2.15-1.72,4.3-2.59,6.45-.95,2.36,2.56,4.17,4.18,2.43,13.3-14.3,17.55-33.33,24.86-50.85,7.34-17.57,20.22-32.98,34.67-45.21,8.41-7.12,17.72-13.14,27.66-17.9l-3.42-3.42c-4.34,8.68-5.94,18.2-7.72,27.65-1.64,8.7-3.96,17.18-7.24,25.41-6.54,16.41-16.23,31.71-27.87,44.96-6.41,7.29-13.47,14.06-21.23,19.91-1.08,.81-1.64,2.16-.9,3.42,.62,1.06,2.34,1.71,3.42,.9,14.36-10.83,26.58-24.35,36.47-39.35,9.75-14.8,17.42-31.34,21.14-48.73,2.27-10.63,3.33-21.8,8.25-31.65,1.15-2.3-1.15-4.51-3.42-3.42-17.84,8.54-33.63,21.25-46.24,36.46-6.23,7.52-11.99,15.6-16.13,24.47-3.97,8.51-6.8,17.48-10.12,26.25-3.77,9.96-8.4,19.69-15.72,27.56l4.18,2.43c6.95-17.29,13.83-34.64,19.16-52.51,5.35-17.96,8.85-36.37,9.91-55.1s-.13-37.3-2.72-55.76c-2.62-18.75-6.74-37.26-11.6-55.55-4.89-18.39-10.54-36.56-16.33-54.68-.71-2.24-1.43-4.48-2.15-6.72-.63-1.96-3.51-2.57-4.57-.6-8.58,15.91-15.33,32.77-20.57,50.05-5.4,17.79-9.24,36.04-11.96,54.42-2.79,18.83-4.45,37.81-5.3,56.83-.85,19.05-.9,38.13-.43,57.19,.45,18.48,1.4,36.95,2.59,55.39,.14,2.2,.29,4.41,.44,6.61,.22,3.19,4.9,3.25,5,0,.66-21.31-3.34-42.49-10.23-62.61s-16.71-39.73-27.39-58.41c-6.04-10.56-12.41-20.92-18.85-31.23-1.33-2.12-4.58-1.23-4.66,1.26-.68,20.49,.46,41,3.26,61.3,2.82,20.46,7.39,40.7,13.94,60.29,3.64,10.88,7.9,21.55,12.82,31.91,.58,1.22,2.33,1.54,3.42,.9,1.25-.73,1.48-2.2,.9-3.42h0Z"/></g></g><g><path class="cls-24" d="M861.34,1420.73c-.99-2.05-1.68-4.31-1.95-6.58l-4.91,.66c.9,2.46,1.67,4.96,2.33,7.49,.31,1.19,1.54,1.97,2.74,1.79,1.31-.2,2.03-1.18,2.17-2.46,.35-3.17,1.38-6.32,3.47-8.77l-4.18-2.43c-1.21,3.09-2.42,6.19-3.63,9.28-.35,.88-.81,1.74-.54,2.72,.07,.26,.22,.53,.33,.78,.26,.61-.13-.31,.04,.08,.32,.77,.63,1.54,.92,2.31,1.46,3.86,2.59,7.85,3.37,11.9,2.11,10.94,1.44,22.33-1.81,32.97-1.33,4.37-3.07,8.52-5.23,12.55-1.52,2.83,2.79,5.36,4.32,2.52,8.88-16.53,11.25-36.05,6.44-54.21-.98-3.71-2.28-7.32-3.8-10.84l.25,1.93c1.39-3.56,2.78-7.11,4.17-10.67,.9-2.31-2.61-4.29-4.18-2.43-3.02,3.55-4.43,7.72-4.93,12.31l4.91-.66c-.66-2.53-1.43-5.03-2.33-7.49-.42-1.17-1.45-1.98-2.74-1.79-1.11,.17-2.32,1.2-2.17,2.46,.38,3.2,1.22,6.19,2.63,9.1,.59,1.22,2.32,1.54,3.42,.9,1.24-.73,1.49-2.2,.9-3.42h0Z"/><g><path class="cls-23" d="M853.74,1384.35c-.09,2.81,1.26,19.49,3.16,29.8-.33-.91-.68-1.81-1.04-2.7-7.79-18.94-23.65-33.96-42.08-42.88-7.34-3.56-15.31-6.35-21.24-11.96-9.69-9.15-11.81-23.53-13.38-36.76-1.23-10.41-1.06-23.56,8.37-28.14,3.74-1.81,8.09-1.69,12.24-1.53,19.94,.76,42.85,3.07,54.24,19.46,7.29,10.49,7.75,24.3,5.9,36.93-1.85,12.64-5.73,25.02-6.17,37.78Z"/><path class="cls-24" d="M851.24,1384.35c-.1,4.07,.46,8.22,.85,12.26,.59,6.09,1.3,12.19,2.4,18.2l4.82-1.33c-7.04-19.19-21.73-34.71-39.46-44.58-8.92-4.96-19.73-7.74-26.87-15.41-6.59-7.08-8.91-17.01-10.34-26.29-1.28-8.28-2.82-17.58-.15-25.71,1.11-3.39,3.27-6.39,6.69-7.81,2.38-.99,5.02-1.11,7.56-1.09s4.98,.15,7.47,.28c16.61,.86,37.29,3.13,47.64,18.02,5.97,8.6,7.04,19.37,6.25,29.55-.91,11.75-4.44,23.12-6.03,34.78-.41,3.03-.72,6.07-.83,9.12-.12,3.22,4.88,3.21,5,0,.87-23.13,13.09-46.82,3.4-69.61-3.83-8.99-11.12-15.8-19.94-19.83s-18.48-5.66-28.09-6.52c-4.93-.44-9.92-.76-14.87-.79-5.28-.03-10.58,.99-14.48,4.8-6.47,6.33-6.62,16.79-5.84,25.18,.92,10.01,2.34,20.41,6.53,29.63,2.11,4.65,5.14,8.96,9.05,12.27,4.31,3.65,9.35,6.12,14.46,8.45,9.42,4.29,18.35,9.16,26.2,16,7.65,6.66,14.12,14.63,18.71,23.7,1.18,2.34,2.21,4.73,3.12,7.18,1.11,3.03,5.4,1.85,4.82-1.33-1.04-5.7-1.7-11.46-2.25-17.22-.38-3.92-.92-7.96-.82-11.92,.08-3.22-4.92-3.22-5,0Z"/></g><g><path class="cls-23" d="M922.83,1385.44c-.7,2.17-2.69,3.65-4.66,4.81-11.07,6.54-24.42,7.61-36.67,11.5-7.73,2.45-14.12,4.77-18.07,9.35,10.09-21.62,30.22-43.04,50.91-36.08,4.73,1.59,10.03,5.67,8.49,10.42Z"/><path class="cls-24" d="M920.41,1384.78c-.58,1.61-2.3,2.61-3.7,3.42-1.83,1.07-3.74,2.02-5.71,2.82-4.16,1.68-8.5,2.87-12.86,3.93-8.59,2.09-17.27,3.88-25.48,7.26-4.08,1.68-8.05,3.77-11.01,7.13l3.93,3.03c4.68-9.98,11.01-19.45,19.33-26.77,6.83-6,15.96-10.83,25.31-9.07,2.63,.5,5.2,1.36,7.39,2.93,1.81,1.3,3.43,3.15,2.8,5.31-.9,3.09,3.92,4.42,4.82,1.33,1.84-6.31-4.04-11.06-9.24-13.13s-10.79-2.24-16.1-1.08c-11.32,2.49-20.66,11.01-27.59,19.9-4.35,5.58-8.04,11.63-11.04,18.03-.53,1.13-.41,2.44,.64,3.23,.94,.7,2.45,.75,3.28-.2,2.42-2.75,5.63-4.54,8.99-5.92,4.19-1.71,8.56-3.06,12.93-4.22,8.92-2.35,18.08-3.84,26.61-7.47,4.45-1.89,9.76-4.29,11.52-9.16,.46-1.27-.52-2.74-1.75-3.08-1.39-.38-2.61,.47-3.08,1.75Z"/></g><g><path class="cls-20" d="M936.51,1490.28c-1.07,1.44-3.05,1.79-4.83,1.98-8.38,.9-16.85,1-25.37,.73-25.95-.84-52.23-5.15-77.05-.84-5.97,1.04-11.86,2.57-17.64,4.78-3.05-8.3-6.11-16.6-9.16-24.91,44.19,3.96,89.99-1.69,134.36-1.43,.17,5.12,.35,10.24,.52,15.36,.05,1.5,.07,3.13-.83,4.33Z"/><path class="cls-24" d="M934.75,1488.51c-.87,1.06-2.25,1.16-3.55,1.3-2.1,.22-4.2,.39-6.3,.51-4.14,.25-8.3,.33-12.45,.29-8.39-.07-16.77-.6-25.14-1.18-16.49-1.15-33.11-2.58-49.61-.93-9.13,.92-18.14,2.76-26.73,6.01l3.08,1.75c-3.05-8.3-6.11-16.6-9.16-24.91l-2.41,3.16c17.37,1.54,34.82,1.62,52.24,1.17,17.55-.46,35.08-1.45,52.63-2.08,9.83-.35,19.66-.58,29.49-.52l-2.5-2.5c.11,3.39,.23,6.77,.34,10.16,.06,1.65,.11,3.3,.17,4.95,.04,1.15,.18,2.33-.48,3.32-1.79,2.68,2.54,5.19,4.32,2.52s1.14-6.67,1.03-9.8c-.13-3.72-.25-7.43-.38-11.15-.05-1.36-1.11-2.49-2.5-2.5-17.47-.09-34.92,.7-52.37,1.47s-35.05,1.53-52.59,1.34c-9.81-.11-19.62-.52-29.4-1.38-1.54-.14-2.94,1.72-2.41,3.16,3.05,8.31,6.11,16.61,9.16,24.91,.43,1.18,1.73,2.26,3.08,1.75,15.51-5.88,32.11-6.96,48.55-6.47s33.88,2.54,50.87,2.73c4.72,.05,9.44-.04,14.15-.35,2.4-.16,4.82-.33,7.2-.68,1.95-.29,3.92-.97,5.21-2.54,.86-1.04,1.02-2.52,0-3.54-.88-.88-2.67-1.05-3.54,0Z"/></g><g><path class="cls-20" d="M907.03,1618.76c-4.86,3.59-11.46,3.35-17.5,2.94-14.82-.99-29.65-1.98-44.48-2.97-3.03-.2-6.47-.63-8.23-3.1-1.12-1.58-1.26-3.63-1.36-5.56-2.06-39.3-4.13-78.62-6.19-117.92,24.82-4.31,51.1,0,77.05,.84,4.8,34.41,7.37,69.12,7.68,103.86,.07,7.97-.56,17.17-6.97,21.91Z"/><path class="cls-24" d="M905.76,1616.6c-4.27,3.06-9.62,2.99-14.65,2.7-6.38-.37-12.75-.85-19.13-1.27s-13.02-.87-19.52-1.3c-3.05-.2-6.16-.26-9.19-.65-1.72-.22-3.92-.67-4.72-2.41-.45-.99-.51-2.14-.57-3.2-.1-1.62-.17-3.24-.26-4.86-.17-3.32-.35-6.63-.52-9.95-.35-6.63-.7-13.27-1.04-19.9-.69-13.1-1.38-26.21-2.06-39.31-.78-14.76-1.55-29.52-2.32-44.28l-1.84,2.41c19.59-3.36,39.64-1.34,59.33,0,5.68,.39,11.37,.73,17.06,.92l-2.41-1.84c2.42,17.39,4.26,34.86,5.52,52.37,1.25,17.31,2.11,34.71,2.07,52.06-.01,6.19-.31,14.39-5.74,18.51-1.07,.82-1.64,2.16-.9,3.42,.62,1.06,2.34,1.72,3.42,.9,5.75-4.37,7.58-11.21,8.06-18.13,.26-3.78,.14-7.58,.08-11.37-.07-4.61-.18-9.22-.34-13.83-.6-18.18-1.82-36.34-3.65-54.44-1.04-10.3-2.29-20.57-3.72-30.82-.15-1.09-1.42-1.8-2.41-1.84-20.27-.67-40.5-3.47-60.81-2.55-5.67,.26-11.31,.84-16.91,1.8-1.02,.18-1.89,1.4-1.84,2.41,1.43,27.37,2.87,54.73,4.31,82.1,.36,6.8,.71,13.6,1.07,20.4,.18,3.4,.36,6.8,.53,10.2,.16,3.06,0,6.38,.79,9.36,1.65,6.28,8.15,6.79,13.55,7.15,6.76,.45,13.51,.9,20.27,1.35,7.61,.51,15.22,1.03,22.83,1.52,6.16,.4,12.93,.43,18.17-3.32,1.1-.79,1.62-2.18,.9-3.42-.63-1.08-2.32-1.69-3.42-.9Z"/></g></g><g><g><g><path class="cls-23" d="M281.62,1565.15c.01,4.81-.17,9.05-.58,12.47-.69,5.72-2.19,12.19-7.24,14.96-2.94,1.6-6.47,1.57-9.82,1.43-13.47-.57-26.9-2.22-40.11-4.91-4.24-.87-8.66-1.94-11.88-4.84-4.9-4.42-5.65-11.72-6.07-18.31-1.43-22.26-2.85-44.52-4.28-66.78-.52-8.19-1.04-16.46,.26-24.56,1.69-10.49,6.48-20.46,13.63-28.32l2.29,1.33c1.54-22.06,1.2-44.24-1-66.24,6.24-7.85,19.98-3.69,25.1,4.93,5.12,8.63,4.51,19.31,4.71,29.34,.14,6.78,.76,13.72,3.57,19.88,3.5,7.66,10.05,13.45,14.7,20.46,2.96,4.46,6.78,21.02,10.03,40.94h-41.48v64.95l48.17,3.27Z"/><path class="cls-24" d="M279.12,1565.15c0,6.46,.05,13.41-2.16,19.58-.88,2.43-2.39,4.75-4.79,5.89-3.06,1.45-6.87,.97-10.13,.81-8.13-.41-16.25-1.2-24.3-2.4-4.1-.61-8.18-1.33-12.24-2.14-3.26-.65-6.69-1.28-9.62-2.92-5.58-3.12-6.78-9.7-7.27-15.56-.68-8.11-1.06-16.26-1.58-24.38-1.08-16.8-2.33-33.59-3.2-50.4-.4-7.77-.43-15.62,1.51-23.21,1.72-6.69,4.73-12.98,8.83-18.54,.98-1.33,2.04-2.59,3.15-3.81l-3.03,.39,2.29,1.33c1.73,1,3.63-.3,3.76-2.16,1.19-17.2,1.26-34.48,.18-51.69-.3-4.86-.7-9.71-1.18-14.55l-.73,1.77c2.29-2.8,5.25-3.68,8.82-3.37,3.32,.29,7.03,2.06,9.62,4.46,7.25,6.73,6.96,18.48,7.05,27.62,.06,5.71,.18,11.45,1.37,17.07s3.55,10.41,6.84,14.9c3.11,4.24,6.74,8.08,9.75,12.39,.42,.6,.83,1.2,1.18,1.84,.12,.22,.23,.45,.34,.68,.08,.17,.43,.99,.21,.45,.59,1.42,1.07,2.87,1.52,4.34,3.41,11.07,5.36,22.65,7.22,34.06l2.41-3.16h-41.48c-1.35,0-2.5,1.15-2.5,2.5v64.95c0,1.42,1.15,2.41,2.5,2.5,5.41,.37,10.83,.74,16.24,1.1l25.93,1.76c2,.14,4,.27,6,.41,1.35,.09,2.5-1.21,2.5-2.5,0-1.43-1.15-2.41-2.5-2.5-5.41-.37-10.83-.74-16.24-1.1l-25.93-1.76c-2-.14-4-.27-6-.41l2.5,2.5v-64.95l-2.5,2.5h41.48c1.76,0,2.67-1.59,2.41-3.16-1.28-7.82-2.69-15.62-4.44-23.34-1.16-5.13-2.36-10.37-4.38-15.24-2.36-5.66-7.06-10.14-10.79-14.91-2.18-2.78-4.22-5.77-5.6-9.04-1.5-3.57-2.26-7.45-2.63-11.29-.73-7.59-.08-15.25-.96-22.83-.8-6.82-2.77-14.09-7.97-18.91-4.14-3.84-10.06-6.44-15.79-5.94-2.93,.25-5.64,1.21-7.94,3.07-1.4,1.13-2.63,2.37-2.44,4.28,.22,2.22,.42,4.44,.6,6.66,1.41,17.43,1.66,34.96,.73,52.42-.11,2.14-.25,4.28-.4,6.42l3.76-2.16-2.29-1.33c-.92-.53-2.29-.43-3.03,.39-5.07,5.62-8.99,12.13-11.6,19.23-2.8,7.64-3.68,15.73-3.57,23.83,.12,8.77,.93,17.54,1.49,26.29s1.14,17.77,1.71,26.66c.56,8.78,1.08,17.57,1.69,26.35,.47,6.72,1.43,14.37,6.74,19.14,2.81,2.53,6.36,3.92,9.99,4.82,4.06,1.01,8.21,1.71,12.34,2.39,8.63,1.43,17.34,2.44,26.08,2.99,4.01,.26,8.13,.66,12.12,0,3.58-.6,6.57-2.56,8.68-5.48,3.88-5.35,4.32-12.91,4.58-19.27,.09-2.11,.12-4.21,.11-6.32,0-3.22-5-3.22-5,0Z"/></g><path class="cls-1" d="M281.62,1565.15l-48.17-3.27v-64.95h41.48c3.69,22.69,6.63,49.74,6.69,68.22Z"/></g><g><path class="cls-16" d="M313.92,1585.09c-.79,0-1.59-.02-2.38-.02-.1-22.27-.2-44.53-.3-66.8-.01-2.69,.03-5.56,1.5-7.8,1.82-2.76,5.29-3.83,8.52-4.54,11.7-2.56,23.9-2.83,35.7-.83,5.71,21.79,8.69,44.3,8.86,66.83,.03,4.35-.38,9.38-3.93,11.89-2.36,1.66-5.45,1.69-8.33,1.67-13.21-.13-26.42-.26-39.63-.39Z"/><path class="cls-24" d="M313.92,1582.59c-.79,0-1.59-.02-2.38-.02l2.5,2.5c-.07-16.12-.15-32.24-.22-48.36-.02-4.15-.04-8.31-.06-12.46,0-1.83-.02-3.66-.02-5.48,0-1.69-.08-3.43,.33-5.08,.71-2.82,3.06-4.05,5.69-4.8,3.39-.98,6.97-1.54,10.48-1.95,8.65-1.02,17.47-.85,26.06,.59l-1.75-1.75c4.29,16.45,7.06,33.28,8.18,50.25,.28,4.26,.46,8.52,.55,12.78,.06,3.29,.31,6.77-.73,9.95-.98,2.97-3.43,4.06-6.41,4.21-4.15,.21-8.35-.02-12.49-.07-9.91-.1-19.82-.2-29.73-.29-3.22-.03-3.22,4.97,0,5,9.25,.09,18.5,.18,27.74,.28,4.42,.04,8.86,.17,13.28,.12,3.89-.04,7.87-.84,10.4-4.06,2.24-2.83,2.83-6.51,2.95-10.02,.15-4.26-.07-8.57-.28-12.83-.43-8.99-1.32-17.94-2.61-26.84-1.46-10.03-3.48-19.98-6.04-29.79-.2-.77-.92-1.61-1.75-1.75-8.19-1.37-16.5-1.78-24.77-1.04-4.12,.37-8.22,.98-12.26,1.87-3.17,.7-6.54,1.76-8.83,4.19-2.62,2.77-3.03,6.51-3.03,10.16,0,4.29,.04,8.58,.06,12.87,.04,8.47,.08,16.95,.12,25.42,.04,9.64,.09,19.28,.13,28.91,0,1.36,1.14,2.49,2.5,2.5,.79,0,1.59,.02,2.38,.02,3.22,.03,3.22-4.97,0-5Z"/></g></g></g></g><g><g><path class="cls-7" d="M214.51,149.91c7.63-.01,18.47,.79,30.84,4.54,12.24,3.71,21.62,8.99,27.93,13.2,10.67,8.36,26.43,23.49,35.84,47.04,5.18,12.96,15.25,38.16,3.38,59.32-1.55,2.77-8.92,14.98-23.03,19.71-6.92,2.32-14.3,2.19-21.24-.14-6.15-2.06-12.1-4.81-17.94-7.66-25.27-12.31-53.99,5.3-55.25,33.28-.56,12.42,4.74,22.12,11.08,31.57,3.58,5.34,8.37,9.94,12.98,14.5,11.41,11.29,23.66,21.8,34.42,33.67,5.8,6.4,8.2,11.01,10.33,17.73,.48,1.5,6.67,22.16-5.12,40.44-7.93,12.3-19.56,16.65-31.3,21.04-33.3,12.45-63.13,3.3-67.91,1.76-20.54-6.63-33.47-18.08-41-24.89-38.28-34.62-46.35-81.38-49.23-98.13-1.29-7.47-7.18-44.22,5.16-89.16,5.33-19.43,12.82-46.71,36.78-72.1,5.08-5.39,22.33-22.79,50.91-34.53,21.25-8.73,40.21-10.81,52.37-11.21Z"/><path class="cls-7" d="M690.91,189.32c14.8,.68,45.19,4.71,72.96,27.46,33.67,27.58,41.18,64.53,43.73,78.11,3.09,16.5,13.63,72.72-22.64,103.25-15.33,12.9-42.21,23.91-66.01,17.03-16.77-4.84-25.5-16.69-31.94-12.78-7.82,4.75,3.69,22.98-4.4,46.85-.65,1.92-10.76,30.41-34.51,34.81-11.19,2.07-20.44-2.15-23.87-3.73-14.7-6.76-23.26-21.28-29.48-39.69-11.34-33.53-9.32-65.01-4.27-114.89,9.71-95.84,15.07-106.08,24.58-115,25.31-23.73,62.82-22.02,75.85-21.42Zm28.33,116.08c.84-5.03-1.2-9.75-5.79-13.32-5.72-4.45-12.53-5.92-19.54-6.09-3.63-.09-6.64,2.02-8.31,5.46-5.18,10.61-7.51,21.74-5.55,33.51,.73,4.36,3.7,6.61,8.16,7.07,5.53,.57,10.84-.74,15.5-3.18,8.99-4.7,16.1-11.17,15.52-23.45Z"/><g id="paw"><path class="cls-7" d="M424.04,483.14c-5.96-.52-33.83-6.11-51.47-25.24-10.9-11.82-16.35-24.8-17.44-34.61-1.31-11.74-1.67-23.66-1.39-35.47,.26-10.85,1.61-21.7,3.06-32.47,1.86-13.74,14.41-58.06,22.52-70.68,9.45-14.7,30.66-32.98,48.77-37.43,11.89-2.92,24.24-.24,35.28,5.45,20.72,10.68,34.06,23.8,43.33,39.38,11.1,18.66,20.77,37.96,25.07,59.46,2.67,13.38,5.39,26.71,6.8,40.38,1.38,13.46-.21,26.36-3.27,39.15-1.28,5.37-3.23,10.4-5.81,15.07,0,0-4.19,10.28-14.06,17.01-33.89,23.1-54.83,23.17-91.39,19.99Zm21.82-89.51c9.58,1.23,18.48-11.57,16.44-21.47-1.72-8.33-5.35-15.86-9.47-23.16-3.96-7.02-11.08-7.92-16.72-2.11-1.87,1.92-3.14,4.56-4.22,7.07-2.61,6.08-2.38,12.69-3.32,19.1-1.74,11.84,5.29,20.57,17.29,20.55Z"/><path class="cls-8" d="M449.88,206.89c-11.57,.82-19.22-4.88-23.24-14.6-2.22-5.36-2.81-11.76-2.63-17.65,.31-10.6,3.27-20.26,11.6-28.04,8.74-8.16,20.2-5.59,26.85,2.15,8.2,9.56,11.39,21.15,12.89,33.18,1.56,12.57-8.62,23.89-21.61,24.94-1.39,.11-2.79,.02-3.86,.02Z"/><path class="cls-8" d="M369.66,174.46c11.08-1.51,18.19,6.09,24.94,13.88,7.25,8.39,9.42,18.51,8.03,29.31-1.19,9.22-13.71,19.63-24.7,17.16-15.45-3.47-23.25-15.32-24.14-29.88-1.77-22.57,14.38-30.47,15.87-30.47Z"/><path class="cls-8" d="M527.35,174.46c-11.08-1.51-18.19,6.09-24.94,13.88-7.25,8.39-9.42,18.51-8.03,29.31,1.19,9.22,13.71,19.63,24.7,17.16,15.45-3.47,23.25-15.32,24.14-29.88,1.77-22.57-14.38-30.47-15.87-30.47Z"/></g><path class="cls-7" d="M911.15,432.96c.43-49.17,10.03-54.46,2.84-70.27-7.65-16.82-19.17-12.25-43.3-40.46-8.08-9.44-16.3-19.22-22.37-34.27-11.43-28.32-6.34-53.29-5.31-58,3.09-14.14,8.46-38.67,28.39-46.14,11.53-4.32,27.65-2.82,36.2,6.39,6.34,6.82,4.33,13.37,7.1,44.01,2.82,31.26,6.09,37.56,9.23,41.88,2.74,3.77,13.44,17.1,29.1,16.33,16.84-.83,26.22-17.31,27.68-19.87,3.79-6.66,3.83-11.08,5.79-25.85,3.88-29.21,5.96-43.98,12.67-52.22,.66-.81,13.52-16.12,30.91-14.34,11.14,1.14,18.78,8.74,20.96,10.91,5.33,5.3,8.3,11.3,10.45,17.56,13.4,39.1-2.98,80.52-2.98,80.52-6.77,17.12-15.95,29.61-22.16,36.96-24.28,28.74-42.65,25.64-49.25,45.12-4.88,14.42,4.73,17.43,7.02,55,1.42,23.32,2.1,38.01-7.73,47.91-9.61,9.68-24.6,10.08-35.46,10.37-10.78,.29-21.8,.58-29.92-6.11-6.31-5.19-10.13-14-9.86-45.43Z"/></g><g><path class="cls-6" d="M357.85,561.16c7.63-.01,18.47,.79,30.84,4.54,12.24,3.71,21.62,8.99,27.93,13.2,10.67,8.36,26.43,23.49,35.84,47.04,5.18,12.96,15.25,38.16,3.38,59.32-1.55,2.77-8.92,14.98-23.03,19.71-6.92,2.32-14.3,2.19-21.24-.14-6.15-2.06-12.1-4.81-17.94-7.66-25.27-12.31-53.99,5.3-55.25,33.28-.56,12.42,4.74,22.12,11.08,31.57,3.58,5.34,8.37,9.94,12.98,14.5,11.41,11.29,23.66,21.8,34.42,33.67,5.8,6.4,8.2,11.01,10.33,17.73,.48,1.5,6.67,22.16-5.12,40.44-7.93,12.3-19.56,16.65-31.3,21.04-33.3,12.45-63.13,3.3-67.91,1.76-20.54-6.63-33.47-18.08-41-24.89-38.28-34.62-46.35-81.38-49.23-98.13-1.29-7.47-7.18-44.22,5.16-89.16,5.33-19.43,12.82-46.71,36.78-72.1,5.08-5.39,22.33-22.79,50.91-34.53,21.25-8.73,40.21-10.81,52.37-11.21Z"/><path class="cls-6" d="M464.85,848.78c.21-11.26,1.09-26.81,4.05-45.05,3.85-23.66,10.57-62.69,35.33-100.53,19.22-29.36,36.92-56.41,63.07-59.21,50.81-5.44,89.65,85.41,123.47,164.53,4.79,11.2,13.47,33.49,5.11,55.09-1.39,3.58-5.91,14.79-17.74,22-10.27,6.25-26.83,9.98-38.33,2.84-18.32-11.38-7.57-40.32-25.55-49.68-3.55-1.85-13.72-1.7-34.07-1.42-13.58,.19-20.37,.29-22.71,1.42-18.67,9.04-8.13,40.58-25.55,52.52-15.6,10.7-48.46,2-61.25-19.81-5.06-8.63-5.84-17.37-5.82-22.71Zm88.36-68.21c3.27,3.54,10.5,3.59,24.84,3.55,18.16-.05,27.23-.07,29.81-4.26,3.47-5.64-2.28-14.56-13.49-31.94-11.65-18.07-17.48-27.1-24.13-26.26-7.76,.98-11.78,14.66-15.62,27.68-3.88,13.18-7.32,24.85-1.42,31.23Z"/><path class="cls-6" d="M896.24,631.18c6.89,4.17,24.86,15.04,26.97,34.07,1.41,12.74-4.73,25.17-12.78,32.65-8.74,8.12-19.16,9.89-36.2,12.78-22.31,3.78-30.01,.44-36.2,7.1-1.31,1.41-5.77,6.73-3.66,27.36,2.1,20.5,7.74,27.41,15.88,53.76,7.65,24.79,8.76,38.46,9,46.42,.43,13.77,.59,23.02-5.32,31.64-8.64,12.59-24.25,15.1-35.75,16.94-11.03,1.77-39.74,6.37-53.26-10.03-6.73-8.16-6.63-19.01-6.44-40.71,.14-15.96,2.28-28.39,4.8-42.73,4.69-26.62,7.78-30.52,8.1-46.46,.34-16.52,.6-29.58-7.54-35.47-4.82-3.48-17.34-2.41-42.19-.12-9.25,.85-14.73,1.6-21.3-1.28-9.64-4.22-14.26-13.01-15.11-14.64-8.5-16.19-1.04-39.89,10.11-53.53,10.84-13.25,23.62-15.09,103.63-22.71,59.46-5.66,77.41-7.03,97.24,4.97Z"/></g></g><g><g><path class="cls-4" d="M979.83,2125.64c1.19,71.18,14.33,106.57-39.1,210.99-70.62,138.03-223.86,187.14-396.06,189.46"/><path class="cls-15" d="M979.83,2125.64c1.19,71.18,14.33,106.57-39.1,210.99-70.62,138.03-223.86,187.14-396.06,189.46"/></g><g><path class="cls-19" d="M303.72,1836.28c-8.89-17.32-18.48-39.54-25.91-66.23-7.18-25.8-10.47-49.02-11.9-67.99,17.95-.53,43.44,.31,73.09,6.8,33.68,7.38,59.53,13.04,64.59,27.2,11.18,31.23-83.61,90.23-99.88,100.23Z"/><path class="cls-13" d="M303.72,1836.28c-8.89-17.32-18.48-39.54-25.91-66.23-7.18-25.8-10.47-49.02-11.9-67.99,17.95-.53,43.44,.31,73.09,6.8,33.68,7.38,59.53,13.04,64.59,27.2,11.18,31.23-83.61,90.23-99.88,100.23Z"/></g><g><path class="cls-19" d="M811.14,1836.28c8.89-17.32,18.48-39.54,25.91-66.23,7.18-25.8,10.47-49.02,11.9-67.99-17.95-.53-43.44,.31-73.09,6.8-33.68,7.38-59.53,13.04-64.59,27.2-11.18,31.23,83.61,90.23,99.88,100.23Z"/><path class="cls-13" d="M811.14,1836.28c8.89-17.32,18.48-39.54,25.91-66.23,7.18-25.8,10.47-49.02,11.9-67.99-17.95-.53-43.44,.31-73.09,6.8-33.68,7.38-59.53,13.04-64.59,27.2-11.18,31.23,83.61,90.23,99.88,100.23Z"/></g><path class="cls-11" d="M881.74,2363.37c-.2,2.63,2.58-37.07,0,0-15.12,165.04-155.3,222.36-324.31,222.36s-314.44-64.9-322.56-236.77c-.03-.03-.03-.1,0-.16-21.98-225.98,13.36-337.28,23.44-394.89,27.71-158.27,124.6-288.37,300.5-288.37,146.28,0,247.04,53.39,294.06,265.12,15.2,68.43,46.85,198.57,28.87,432.7Z"/><g><line class="cls-5" x1="545.61" y1="1890.72" x2="569.24" y2="1890.72"/><line class="cls-18" x1="545.61" y1="1890.72" x2="569.24" y2="1890.72"/></g><path class="cls-3" d="M324.16,2051.65c-62.98-59.98-82.01-71.87-110.53-64.31-16.48,4.37-40.09,27.97-28.39,51.32,7.27,14.51,13.56,27.08,84.75,86.98"/><path class="cls-10" d="M802.79,2080.6c17.49,85.19,17.49,107.63-4.04,127.81-12.44,11.66-44.97,19.18-58.57-3.12-8.45-13.85-15.78-25.86-28.85-117.96"/><g><line class="cls-14" x1="404.51" y1="1852.34" x2="404.51" y2="1894.34"/><line class="cls-17" x1="404.51" y1="1852.34" x2="404.51" y2="1894.34"/></g><g><line class="cls-14" x1="710.35" y1="1856.65" x2="710.35" y2="1898.65"/><line class="cls-17" x1="710.35" y1="1856.65" x2="710.35" y2="1898.65"/></g><circle cx="427.02" cy="1852.68" r="13.07"/><circle cx="684.15" cy="1852.68" r="13.07"/><path class="cls-9" d="M509.51,1942.17c2.4,4.99,9.1,17.13,23.36,24.92,24.75,13.52,49.73,1.61,51.39,.78,14.28-7.11,21.48-18.57,24.14-23.36"/></g></svg>